<?xml version="1.0" encoding="iso-8859-1"?>
<!-- Generator: Adobe Illustrator 19.0.0, SVG Export Plug-In . SVG Version: 6.00 Build 0)  -->
<svg version="1.1" id="Layer_1" xmlns="http://www.w3.org/2000/svg" xmlns:xlink="http://www.w3.org/1999/xlink" x="0px" y="0px"
	 viewBox="0 0 512 512" style="enable-background:new 0 0 512 512;" xml:space="preserve">
<g>
	<path style="fill:#6DA8D6;" d="M373.106,476.596V35.404c0-4.506-3.665-8.17-8.17-8.17h-40.851v457.532h40.851
		C369.442,484.766,373.106,481.101,373.106,476.596z"/>
	<path style="fill:#6DA8D6;" d="M264.17,484.766V27.234H49.021c-4.506,0-8.17,3.665-8.17,8.17v441.191c0,4.506,3.665,8.17,8.17,8.17
		H264.17z M222.71,402.522c0.022,0,0.042-0.003,0.064-0.003c4.512,0,8.17,3.658,8.17,8.17c0,0.022-0.003,0.042-0.003,0.064
		c-0.033,4.184-3.209,7.618-7.286,8.056c-0.29,0.032-0.584,0.049-0.882,0.049c-0.217,0-0.429-0.016-0.641-0.033
		c-4-0.312-7.185-3.497-7.497-7.497c-0.016-0.212-0.033-0.425-0.033-0.641c0-0.298,0.019-0.592,0.049-0.882
		C215.091,405.732,218.525,402.555,222.71,402.522z M181.923,443.37c0-0.047,0.007-0.093,0.007-0.139
		c0.071-4.221,3.339-7.658,7.489-7.997c0.222-0.019,0.446-0.034,0.673-0.034c0.206,0,0.407,0.016,0.609,0.031
		c4.025,0.297,7.233,3.506,7.531,7.531c0.015,0.202,0.031,0.403,0.031,0.609c0,0.227-0.016,0.451-0.034,0.673
		c-0.34,4.15-3.776,7.419-7.997,7.489c-0.047,0-0.093,0.007-0.139,0.007C185.581,451.54,181.923,447.882,181.923,443.37z"/>
</g>
<path style="fill:#185F8D;" d="M389.447,51.745h16.34c0-4.513,3.658-8.17,8.17-8.17c4.512,0,8.17,3.657,8.17,8.17h16.34
	c0-4.513,3.658-8.17,8.17-8.17c4.512,0,8.17,3.657,8.17,8.17v408.511c0,4.513-3.658,8.17-8.17,8.17c-4.512,0-8.17-3.657-8.17-8.17
	h-16.34c0,4.513-3.658,8.17-8.17,8.17c-4.512,0-8.17-3.657-8.17-8.17h-16.34v16.34c0,2.864-0.499,5.613-1.405,8.17h74.937
	c4.506,0,8.17-3.665,8.17-8.17V35.404c0-4.506-3.665-8.17-8.17-8.17h-49.021c-4.512,0-8.17-3.657-8.17-8.17h-22.602
	c3.89,4.34,6.262,10.068,6.262,16.34V51.745z"/>
<rect x="422.128" y="51.745" style="fill:#C1E8E6;" width="16.34" height="408.511"/>
<rect x="389.447" y="51.745" style="fill:#FFFFFF;" width="16.34" height="408.511"/>
<g>
	<path style="fill:#082947;" d="M190.094,451.54c0.047,0,0.093-0.007,0.139-0.007c4.221-0.071,7.657-3.34,7.997-7.489
		c0.019-0.223,0.034-0.447,0.034-0.673c0-0.206-0.016-0.407-0.031-0.609c-0.297-4.025-3.506-7.233-7.531-7.531
		c-0.202-0.015-0.403-0.031-0.609-0.031c-0.228,0-0.451,0.016-0.673,0.034c-4.15,0.34-7.419,3.776-7.489,7.997
		c-0.001,0.046-0.008,0.092-0.008,0.138C181.923,447.882,185.581,451.54,190.094,451.54z"/>
	<path style="fill:#082947;" d="M214.637,411.33c0.312,3.999,3.497,7.185,7.497,7.497c0.212,0.016,0.425,0.033,0.641,0.033
		c0.298,0,0.592-0.019,0.882-0.049c4.076-0.438,7.252-3.872,7.286-8.056c0-0.022,0.003-0.042,0.003-0.064
		c0-4.512-3.658-8.17-8.17-8.17c-0.022,0-0.042,0.003-0.065,0.003c-4.184,0.033-7.618,3.209-8.056,7.286
		c-0.032,0.29-0.049,0.584-0.049,0.882C214.604,410.906,214.621,411.119,214.637,411.33z"/>
	<path style="fill:#082947;" d="M462.979,10.894h-49.021c-4.512,0-8.17,3.657-8.17,8.17s3.658,8.17,8.17,8.17h49.021
		c4.506,0,8.17,3.665,8.17,8.17v441.191c0,4.506-3.665,8.17-8.17,8.17h-74.937c0.907-2.557,1.405-5.306,1.405-8.17V35.404
		c0-6.273-2.372-12-6.262-16.34c-4.49-5.01-11.007-8.17-18.249-8.17h-40.851V8.17c0-4.513-3.658-8.17-8.17-8.17H272.34
		c-4.512,0-8.17,3.657-8.17,8.17v2.723H49.021c-13.516,0-24.511,10.996-24.511,24.511v441.191c0,13.515,10.995,24.511,24.511,24.511
		H264.17v2.723c0,4.513,3.658,8.17,8.17,8.17h43.574c4.512,0,8.17-3.657,8.17-8.17v-2.723h138.894
		c13.516,0,24.511-10.996,24.511-24.511V35.404C487.489,21.89,476.494,10.894,462.979,10.894z M40.851,476.596V35.404
		c0-4.506,3.665-8.17,8.17-8.17H264.17v457.532H49.021C44.516,484.766,40.851,481.101,40.851,476.596z M307.745,495.66h-27.234
		V16.34h27.234V495.66z M324.085,27.234h40.851c4.506,0,8.17,3.665,8.17,8.17v441.191c0,4.506-3.665,8.17-8.17,8.17h-40.851V27.234z
		"/>
</g>
<rect x="280.511" y="16.34" style="fill:#FFCC75;" width="27.234" height="479.319"/>
<g>
	<path style="fill:#082947;" d="M413.957,468.426c4.512,0,8.17-3.657,8.17-8.17V51.745c0-4.513-3.658-8.17-8.17-8.17
		c-4.512,0-8.17,3.657-8.17,8.17v408.511C405.787,464.769,409.445,468.426,413.957,468.426z"/>
	<path style="fill:#082947;" d="M446.638,468.426c4.512,0,8.17-3.657,8.17-8.17V51.745c0-4.513-3.658-8.17-8.17-8.17
		c-4.512,0-8.17,3.657-8.17,8.17v408.511C438.468,464.769,442.126,468.426,446.638,468.426z"/>
</g>
<g>
</g>
<g>
</g>
<g>
</g>
<g>
</g>
<g>
</g>
<g>
</g>
<g>
</g>
<g>
</g>
<g>
</g>
<g>
</g>
<g>
</g>
<g>
</g>
<g>
</g>
<g>
</g>
<g>
</g>
</svg>
